# xmcd
#
# Track frame offsets: 
#        150
#        17197
#        42958
#        61947
#        82806
#        108506
#        127758
#        151134
#        171958
#        191674
#        206263
#        219525
#
# Disc length: 3193 seconds
#
# Revision: 0
# Processed by: cddbd v1.5.2PL0 Copyright (c) Steve Scherf et al.
# Submitted via: ExactAudioCopyFreeDBPlugin 1.0
#
DISCID=960c770c
DTITLE=Kenn Lending - Low Down Dog
DYEAR=2008
DGENRE=Blues
TTITLE0=Low Down Dog
TTITLE1=It´s A Whole Lot Of Trouble
TTITLE2=Ain´t But One Thing
TTITLE3=Voodoo Child
TTITLE4=Corrina Corrina
TTITLE5=Ain´t It Hard
TTITLE6=Highway Blues
TTITLE7=Someday You´re Gonna Die
TTITLE8=I Hate To Be Alone
TTITLE9=Train Train Train
TTITLE10=Is It You Or Me
TTITLE11=Peace Of Mind
EXTD=
EXTT0=
EXTT1=
EXTT2=
EXTT3=
EXTT4=
EXTT5=
EXTT6=
EXTT7=
EXTT8=
EXTT9=
EXTT10=
EXTT11=
PLAYORDER=
